<?xml version="1.0" encoding="UTF-8" standalone="no"?>
<!-- Created with Inkscape (http://www.inkscape.org/) -->

<svg
   version="1.1"
   id="svg1"
   width="360"
   height="310"
   viewBox="0 0 360 310"
   sodipodi:docname="newDimond.svg"
   inkscape:version="1.4 (e7c3feb100, 2024-10-09)"
   xmlns:inkscape="http://www.inkscape.org/namespaces/inkscape"
   xmlns:sodipodi="http://sodipodi.sourceforge.net/DTD/sodipodi-0.dtd"
   xmlns="http://www.w3.org/2000/svg"
   xmlns:svg="http://www.w3.org/2000/svg">
  <defs
     id="defs1">
    <linearGradient
       id="swatch2"
       inkscape:swatch="solid">
      <stop
         style="stop-color:#000000;stop-opacity:1;"
         offset="0"
         id="stop2" />
    </linearGradient>
  </defs>
  <sodipodi:namedview
     id="namedview1"
     pagecolor="#ffffff"
     bordercolor="#000000"
     borderopacity="0.25"
     inkscape:showpageshadow="2"
     inkscape:pageopacity="0.0"
     inkscape:pagecheckerboard="0"
     inkscape:deskcolor="#d1d1d1"
     inkscape:zoom="0.91125535"
     inkscape:cx="180.5202"
     inkscape:cy="-22.496439"
     inkscape:window-width="1920"
     inkscape:window-height="1043"
     inkscape:window-x="0"
     inkscape:window-y="0"
     inkscape:window-maximized="1"
     inkscape:current-layer="g1" />
  <g
     inkscape:groupmode="layer"
     inkscape:label="Image"
     id="g1">
    <path
       style="fill:#0000ff;stroke-width:2.52902;fill-opacity:0.78109562"
       d="M 162.38377,296.74164 C 144.34976,275.79908 114.75101,240.86507 95.249001,217.50564 88.601245,209.54296 64.450676,180.76431 41.581069,153.55309 18.711487,126.34187 0,102.62994 0,100.8599 0,98.227947 58.14526,28.621063 79.195126,6.0538207 L 84.841909,0 180.21214,0.75047627 275.58237,1.5009525 302.0834,31.995183 c 14.57558,16.771827 33.56955,39.149316 42.20883,49.727751 L 360,100.95645 l -5.72997,7.72858 c -3.15148,4.25072 -19.84042,24.30486 -37.08652,44.56476 -17.2461,20.25989 -52.9414,62.41994 -79.32287,93.68899 C 211.47915,278.20783 187.47615,306.58536 184.52062,310 Z m 94.63147,-101.8488 c 19.82631,-23.43383 45.69768,-54.18254 57.49194,-68.33049 l 21.44409,-25.72353 -15.28354,-17.848869 c -8.40595,-9.816875 -23.9092,-27.72194 -34.45168,-39.78904 l -19.16816,-21.940148 -38.85129,0.726771 -38.85131,0.726796 -0.67492,32.163559 -0.67491,32.16356 11.5256,6.285688 c 37.40952,20.401893 27.26433,89.444573 -13.19082,89.769743 l -5.4271,0.0436 0.0121,49.71885 0.0121,49.71886 20.01971,-22.53922 c 11.01085,-12.39656 36.24124,-41.71234 56.06757,-65.14615 z M 133.14705,228.88185 C 110.7586,193.90642 95.841567,136.08217 95.490784,82.911517 L 95.27563,50.300178 110.9539,42.857334 c 8.62305,-4.093545 21.64808,-10.500913 28.9445,-14.238578 L 153.16464,21.823024 121.77688,21.605852 90.389123,21.38868 63.273623,53.019974 C 26.367718,96.072172 23.432987,100.09719 25.771799,104.45387 c 2.350438,4.37831 109.768331,131.72026 111.111171,131.72026 0.51253,0 -1.16864,-3.28144 -3.73594,-7.2921 z m 30.8718,-90.81978 c 0,-23.9743 9.2311,-44.676291 9.75473,-21.87629 1.08223,47.12252 1.06752,46.98797 5.23126,47.86942 3.63799,0.77012 4.21454,-2.23627 4.82408,-25.15467 1.09367,-41.121633 11.54647,-42.047624 11.54647,-1.02288 0,24.93335 0.31938,26.70114 4.82409,26.70114 6.51835,0 7.42428,-49.79611 1.03372,-56.82154 -4.13715,-4.54819 -12.41234,-5.40064 -17.56728,-1.80966 -1.88644,1.3141 -6.14714,1.08106 -10.08116,-0.5514 -15.50921,-6.43566 -19.21408,-0.40362 -19.21408,31.28319 0,26.13162 0.30568,27.89941 4.82408,27.89941 4.50249,0 4.82409,-1.76779 4.82409,-26.51672 z"
       id="path2"
       sodipodi:nodetypes="ssssscccsscssssscscsscccccsscccsccsscsscccssssssssssssssss" />
  </g>
</svg>
